<?xml version="1.0" encoding="iso-8859-1"?>
<!-- Uploaded to: SVG Repo, www.svgrepo.com, Generator: SVG Repo Mixer Tools -->
<!DOCTYPE svg PUBLIC "-//W3C//DTD SVG 1.1//EN" "http://www.w3.org/Graphics/SVG/1.1/DTD/svg11.dtd">
<svg fill="#000000" height="800px" width="800px" version="1.1" id="Capa_1" xmlns="http://www.w3.org/2000/svg" xmlns:xlink="http://www.w3.org/1999/xlink" 
	 viewBox="0 0 277.141 277.141" xml:space="preserve">
<path d="M274.804,58.127L219.013,2.335C217.507,0.829,215.498,0,213.356,0c-2.143,0-4.151,0.829-5.656,2.335L28.281,181.754
	c-2.834,2.834-5.996,8.283-7.05,12.147l-20.95,76.817c-0.521,1.912-0.308,3.621,0.602,4.813c0.792,1.038,2.061,1.609,3.572,1.609
	c0.619,0,1.28-0.095,1.964-0.281l76.818-20.951c3.865-1.054,9.314-4.216,12.147-7.049L274.804,69.44
	c1.506-1.506,2.335-3.515,2.335-5.657C277.139,61.641,276.31,59.632,274.804,58.127z M65.155,235.776l-3.702,3.702
	c-1.167,1.167-3.424,2.477-5.016,2.911l-26.926,7.343c-1.592,0.434-2.539-0.513-2.105-2.105l7.343-26.926
	c0.434-1.592,1.744-3.849,2.911-5.016l3.702-3.702c1.167-1.167,3.076-1.167,4.243,0l19.549,19.549
	C66.322,232.7,66.322,234.61,65.155,235.776z M221.367,76.985L109.119,189.233c-2.929,2.929-6.768,4.394-10.606,4.394
	s-7.678-1.465-10.606-4.394c-5.858-5.857-5.858-15.355,0-21.213L200.154,55.772c5.857-5.857,15.355-5.857,21.213,0
	C227.225,61.63,227.225,71.128,221.367,76.985z"/>
</svg>