<?xml version="1.0" encoding="UTF-8"?>
<svg id="Livello_1" xmlns="http://www.w3.org/2000/svg" version="1.1" viewBox="0 0 800 800">
  <!-- Generator: Adobe Illustrator 29.0.0, SVG Export Plug-In . SVG Version: 2.1.0 Build 186)  -->
  <defs>
    <style>
      .st0 {
        fill: none;
      }

      .st0, .st1 {
        stroke: #000;
        stroke-linecap: round;
        stroke-linejoin: round;
        stroke-width: 50px;
      }

      .st1 {
        fill: #2ca9bc;
      }
    </style>
  </defs>
  <path class="st1" d="M404,426c-2.3-.3-5.3-.3-8,0-58.7-2-105.3-50-105.3-109s48.7-109.3,109.3-109.3,109.3,49,109.3,109.3c-.3,59-46.7,107-105.3,109Z"/>
  <path class="st1" d="M624.7,646c-59.3,54.3-138,87.3-224.7,87.3s-165.3-33-224.7-87.3c3.3-31.3,23.3-62,59-86,91.3-60.7,240.7-60.7,331.3,0,35.7,24,55.7,54.7,59,86Z"/>
  <path class="st0" d="M400,733.3c184.1,0,333.3-149.2,333.3-333.3S584.1,66.7,400,66.7,66.7,215.9,66.7,400s149.2,333.3,333.3,333.3Z"/>
</svg>